<svg width="208" height="263" viewBox="0 0 208 263" fill="none" xmlns="http://www.w3.org/2000/svg">
<path d="M43.5 122.5C43.5 141.278 58.7223 156.5 77.5 156.5C96.2777 156.5 111.5 141.278 111.5 122.5C111.5 103.722 96.2777 88.5 77.5 88.5C58.7223 88.5 43.5 103.722 43.5 122.5Z" fill="#68FD2D" stroke="#12AA00" stroke-width="7"/>
<path d="M121.5 171.5C121.5 187.58 134.772 200.5 151 200.5C167.228 200.5 180.5 187.58 180.5 171.5C180.5 155.42 167.228 142.5 151 142.5C134.772 142.5 121.5 155.42 121.5 171.5Z" fill="#68FD2D" stroke="#12AA00" stroke-width="7"/>
<circle cx="47" cy="216" r="43.5" transform="rotate(90 47 216)" fill="#68FD2D" stroke="#12AA00" stroke-width="7"/>
<circle cx="174.5" cy="67.5" r="30" transform="rotate(90 174.5 67.5)" fill="#68FD2D" stroke="#12AA00" stroke-width="7"/>
<circle cx="94.5" cy="27.5" r="24" transform="rotate(90 94.5 27.5)" fill="#68FD2D" stroke="#12AA00" stroke-width="7"/>
<path d="M167.5 182C167.5 192.217 175.783 200.5 186 200.5C196.217 200.5 204.5 192.217 204.5 182C204.5 171.783 196.217 163.5 186 163.5C175.783 163.5 167.5 171.783 167.5 182Z" fill="#68FD2D" stroke="#12AA00" stroke-width="7"/>
<path d="M135.5 114C135.5 119.247 139.753 123.5 145 123.5C150.247 123.5 154.5 119.247 154.5 114C154.5 108.753 150.247 104.5 145 104.5C139.753 104.5 135.5 108.753 135.5 114Z" fill="#68FD2D" stroke="#12AA00" stroke-width="7"/>
<path d="M7.5 77C7.5 82.2467 11.7533 86.5 17 86.5C22.2467 86.5 26.5 82.2467 26.5 77C26.5 71.7533 22.2467 67.5 17 67.5C11.7533 67.5 7.5 71.7533 7.5 77Z" fill="#68FD2D" stroke="#12AA00" stroke-width="7"/>
</svg>
