<svg width="215" height="229" viewBox="0 0 215 229" fill="none" xmlns="http://www.w3.org/2000/svg">
<circle cx="88.5" cy="140.5" r="44" fill="#68FD2D" stroke="#12AA00" stroke-width="7"/>
<circle cx="134.5" cy="73.5" r="21" fill="#68FD2D" stroke="#12AA00" stroke-width="7"/>
<circle cx="186" cy="188" r="37.5" fill="#68FD2D" stroke="#12AA00" stroke-width="7"/>
<circle cx="33.5" cy="39.5" r="30" fill="#68FD2D" stroke="#12AA00" stroke-width="7"/>
<circle cx="182.5" cy="26.5" r="23" fill="#68FD2D" stroke="#12AA00" stroke-width="7"/>
<path d="M164.5 110C164.5 115.247 168.753 119.5 174 119.5C179.247 119.5 183.5 115.247 183.5 110C183.5 104.753 179.247 100.5 174 100.5C168.753 100.5 164.5 104.753 164.5 110Z" fill="#68FD2D" stroke="#12AA00" stroke-width="7"/>
<path d="M24.5 100C24.5 105.247 28.7533 109.5 34 109.5C39.2467 109.5 43.5 105.247 43.5 100C43.5 94.7533 39.2467 90.5 34 90.5C28.7533 90.5 24.5 94.7533 24.5 100Z" fill="#68FD2D" stroke="#12AA00" stroke-width="7"/>
</svg>
