<svg width="1440" height="1253" viewBox="0 0 1440 1253" fill="none" xmlns="http://www.w3.org/2000/svg">
<g clip-path="url(#clip0_2019_50)">
<g clip-path="url(#clip1_2019_50)">
<path d="M-4.98163 1219.31C22.5871 1220.85 50.156 1222.34 77.7064 1223.96C124.401 1226.69 171.095 1229.49 217.789 1232.26C264.704 1235.04 311.637 1237.85 358.552 1240.6C380.522 1241.88 402.511 1243.85 424.5 1244C442.451 1244.11 460.402 1242.05 478.353 1240.82C533.325 1237.05 588.279 1233.09 643.251 1229.43C682.072 1226.85 720.91 1224.68 759.73 1222.23C772.487 1221.43 785.243 1220.35 798 1218.61C780.049 1218.61 762.117 1218.61 744.166 1218.61C702.372 1218.64 660.578 1218.72 618.785 1218.72C601.733 1218.72 584.645 1217.99 567.63 1218.79C557.168 1219.28 546.798 1218.35 536.372 1218.76C525.139 1219.2 513.888 1218.74 502.636 1218.72C491.403 1218.72 480.152 1218.68 468.918 1218.85C466.826 1218.89 464.77 1219.91 462.292 1220.59C459.172 1215.3 452.766 1219.93 447.645 1218.87C446.526 1218.63 444.856 1221.08 444.085 1221.75C442.543 1220.97 440.395 1218.89 438.229 1218.89C392.361 1218.76 346.493 1218.85 300.624 1218.89C293.025 1218.89 285.427 1218.89 277.626 1218.89C277.314 1221.34 276.422 1218.77 276 1222C274.77 1218.84 274.579 1221.26 273.514 1218.55C263.493 1218.55 253.398 1218.79 243.302 1218.46C236.897 1218.25 231.409 1213.18 232.051 1221.1C233.262 1222.45 231.739 1218.92 232.051 1221.1C230.711 1219.59 227.958 1219.11 225.737 1218.76C223.333 1218.38 220.818 1218.66 217.716 1218.66C217.074 1221.24 216.01 1217.01 215 1221.1C214.835 1213.76 215.367 1216.94 206.813 1220.45C200.573 1223.01 191.964 1219 184.402 1218.96C122.382 1218.72 60.3429 1218.72 -1.67767 1218.66C-2.77896 1218.66 -3.88036 1218.77 -5 1218.83C-5 1219 -5 1219.15 -5 1219.31H-4.98163Z" fill="#68FD2D"/>
<path d="M657.018 1207.31C684.587 1208.85 712.156 1210.34 739.706 1211.96C786.401 1214.69 833.095 1217.49 879.789 1220.26C926.704 1223.04 973.637 1225.85 1020.55 1228.6C1042.52 1229.88 1064.51 1231.85 1086.5 1232C1104.45 1232.11 1122.4 1230.05 1140.35 1228.82C1195.33 1225.05 1250.28 1221.09 1305.25 1217.43C1344.07 1214.85 1382.91 1212.68 1421.73 1210.23C1434.49 1209.43 1447.24 1208.35 1460 1206.61C1442.05 1206.61 1424.12 1206.61 1406.17 1206.61C1364.37 1206.64 1322.58 1206.72 1280.78 1206.72C1263.73 1206.72 1246.64 1205.99 1229.63 1206.79C1219.17 1207.28 1208.8 1206.35 1198.37 1206.76C1187.14 1207.2 1175.89 1206.74 1164.64 1206.72C1153.4 1206.72 1142.15 1206.68 1130.92 1206.85C1128.83 1206.89 1126.77 1207.91 1124.29 1208.59C1121.17 1203.3 1114.77 1207.93 1109.65 1206.87C1108.53 1206.63 1106.86 1209.08 1106.08 1209.75C1104.54 1208.97 1102.4 1206.89 1100.23 1206.89C1054.36 1206.76 1008.49 1206.85 962.624 1206.89C955.025 1206.89 947.427 1206.89 939.626 1206.89C939.314 1209.34 939.057 1211.31 938.635 1214.54C937.405 1211.38 936.579 1209.26 935.514 1206.55C925.493 1206.55 915.398 1206.79 905.302 1206.46C898.897 1206.25 894.547 1207.52 895.189 1215.43C894.877 1213.26 895.262 1210.45 894.051 1209.1C892.711 1207.59 889.958 1207.11 887.737 1206.76C885.333 1206.38 882.818 1206.66 879.716 1206.66C879.074 1209.24 878.45 1211.79 877.44 1215.87C877.275 1208.54 877.367 1204.94 868.813 1208.45C862.573 1211.01 853.964 1207 846.402 1206.96C784.382 1206.72 722.343 1206.72 660.322 1206.66C659.221 1206.66 658.12 1206.77 657 1206.83C657 1207 657 1207.15 657 1207.31H657.018Z" fill="#68FD2D"/>
<path d="M500.049 1186.53C574.241 1190.68 648.433 1194.68 722.576 1199.03C848.238 1206.38 973.9 1213.94 1099.56 1221.39C1225.82 1228.89 1352.12 1236.44 1478.37 1243.84C1537.5 1247.29 1596.68 1252.59 1655.85 1252.99C1704.16 1253.29 1752.47 1247.74 1800.78 1244.44C1948.72 1234.29 2096.61 1223.64 2244.55 1213.79C2349.02 1206.84 2453.54 1200.98 2558.01 1194.38C2592.34 1192.23 2626.67 1189.33 2661 1184.63C2612.69 1184.63 2564.43 1184.63 2516.12 1184.63C2403.65 1184.73 2291.18 1184.93 2178.7 1184.93C2132.81 1184.93 2086.83 1182.98 2041.04 1185.13C2012.88 1186.43 1984.97 1183.93 1956.92 1185.03C1926.69 1186.23 1896.41 1184.98 1866.13 1184.93C1835.9 1184.93 1805.62 1184.83 1775.39 1185.28C1769.76 1185.38 1764.23 1188.13 1757.56 1189.98C1749.16 1175.73 1731.92 1188.18 1718.14 1185.33C1715.13 1184.68 1710.63 1191.28 1708.56 1193.08C1704.41 1190.98 1698.63 1185.38 1692.8 1185.38C1569.36 1185.03 1445.92 1185.28 1322.48 1185.38C1302.03 1185.38 1281.58 1185.38 1260.59 1185.38C1259.75 1191.98 1259.06 1197.28 1257.92 1205.98C1254.61 1197.48 1252.39 1191.78 1249.53 1184.48C1222.56 1184.48 1195.39 1185.13 1168.22 1184.23C1150.98 1183.68 1139.28 1187.08 1141 1208.39C1140.16 1202.53 1141.2 1194.98 1137.94 1191.33C1134.34 1187.28 1126.93 1185.98 1120.95 1185.03C1114.48 1184.03 1107.71 1184.78 1099.36 1184.78C1097.64 1191.73 1095.96 1198.58 1093.24 1209.59C1092.79 1189.83 1093.04 1180.13 1070.02 1189.58C1053.23 1196.48 1030.06 1185.68 1009.71 1185.58C842.804 1184.93 675.848 1184.93 508.941 1184.78C505.977 1184.78 503.013 1185.08 500 1185.23C500 1185.68 500 1186.08 500 1186.53H500.049Z" fill="#68FD2D"/>
</g>
<g clip-path="url(#clip2_2019_50)">
<path d="M1444.98 33.6878C1417.41 32.1463 1389.84 30.6604 1362.29 29.0446C1315.6 26.3144 1268.9 23.5098 1222.21 20.7425C1175.3 17.9565 1128.36 15.152 1081.45 12.4033C1059.48 11.1217 1037.49 9.15309 1015.5 9.00451C997.549 8.89307 979.598 10.9546 961.647 12.1804C906.675 15.9506 851.721 19.9067 796.749 23.5655C757.928 26.1471 719.09 28.3201 680.27 30.7717C667.513 31.5704 654.757 32.6476 642 34.3935C659.951 34.3935 677.883 34.3935 695.834 34.3935C737.628 34.3563 779.422 34.282 821.215 34.2821C838.267 34.2821 855.355 35.0063 872.37 34.2077C882.832 33.7248 893.202 34.6535 903.628 34.2449C914.861 33.7991 926.112 34.2635 937.364 34.2821C948.597 34.2821 959.848 34.3192 971.082 34.1521C973.174 34.1149 975.23 33.0934 977.708 32.4062C980.828 37.6995 987.234 33.0748 992.355 34.1335C993.474 34.3749 995.144 31.9233 995.915 31.2547C997.457 32.0348 999.605 34.1149 1001.77 34.1149C1047.64 34.2449 1093.51 34.152 1139.38 34.1149C1146.97 34.1149 1154.57 34.1149 1162.37 34.1149C1162.69 31.6633 1163.58 34.2319 1164 31.0002C1165.23 34.1576 1165.42 31.7376 1166.49 34.4492C1176.51 34.4492 1186.6 34.2079 1196.7 34.5422C1203.1 34.7465 1208.59 39.8168 1207.95 31.9047C1206.74 30.5489 1208.26 34.0778 1207.95 31.9047C1209.29 33.4091 1212.04 33.8921 1214.26 34.2449C1216.67 34.6164 1219.18 34.3378 1222.28 34.3378C1222.93 31.7562 1223.99 35.9908 1225 31.9048C1225.17 39.2411 1224.63 36.0651 1233.19 32.5549C1239.43 29.9918 1248.04 34.0035 1255.6 34.0407C1317.62 34.2821 1379.66 34.2821 1441.68 34.3378C1442.78 34.3378 1443.88 34.2264 1445 34.1707C1445 34.0036 1445 33.855 1445 33.6878L1444.98 33.6878Z" fill="#68FD2D"/>
<path d="M782.982 45.6877C755.413 44.1462 727.844 42.6603 700.294 41.0445C653.599 38.3143 606.905 35.5097 560.211 32.7424C513.296 29.9564 466.363 27.1519 419.448 24.4032C397.478 23.1216 375.489 21.153 353.5 21.0044C335.549 20.893 317.598 22.9545 299.647 24.1803C244.675 27.9505 189.721 31.9066 134.749 35.5654C95.9283 38.147 57.0898 40.32 18.2696 42.7716C5.51305 43.5703 -7.24348 44.6475 -20 46.3933C-2.0491 46.3934 15.8834 46.3934 33.8343 46.3934C75.628 46.3562 117.422 46.2819 159.215 46.2819C176.267 46.2819 193.355 47.0062 210.37 46.2076C220.832 45.7247 231.202 46.6534 241.628 46.2448C252.861 45.799 264.112 46.2634 275.364 46.282C286.597 46.282 297.848 46.3191 309.082 46.1519C311.174 46.1148 313.23 45.0933 315.708 44.4061C318.828 49.6994 325.234 45.0747 330.355 46.1334C331.474 46.3748 333.144 43.9232 333.915 43.2546C335.457 44.0347 337.605 46.1148 339.771 46.1148C385.639 46.2448 431.507 46.1519 477.376 46.1148C484.975 46.1148 492.573 46.1148 500.374 46.1148C500.686 43.6632 500.943 41.6945 501.365 38.4628C502.595 41.6202 503.421 43.7375 504.486 46.4491C514.507 46.4491 524.602 46.2077 534.698 46.5421C541.103 46.7464 545.453 45.4834 544.811 37.5714C545.123 39.7444 544.738 42.5488 545.949 43.9046C547.289 45.409 550.042 45.8919 552.263 46.2448C554.667 46.6163 557.182 46.3377 560.284 46.3377C560.926 43.7561 561.55 41.2117 562.56 37.1256C562.725 44.4619 562.633 48.065 571.187 44.5548C577.427 41.9917 586.036 46.0034 593.598 46.0406C655.618 46.282 717.657 46.282 779.678 46.3377C780.779 46.3377 781.88 46.2263 783 46.1706C783 46.0035 783 45.8549 783 45.6877L782.982 45.6877Z" fill="#68FD2D"/>
<path d="M939.951 66.4667C865.759 62.3164 791.567 58.3161 717.424 53.9657C591.762 46.6152 466.1 39.0644 340.438 31.6138C214.184 24.1133 87.8797 16.5627 -38.3749 9.16214C-97.5012 5.71187 -156.677 0.411683 -215.853 0.011643C-264.161 -0.288388 -312.47 5.26182 -360.779 8.56206C-508.718 18.7128 -656.608 29.3636 -804.547 39.2143C-909.019 46.1648 -1013.54 52.0152 -1118.01 58.6157C-1152.34 60.7659 -1186.67 63.6661 -1221 68.3665C-1172.69 68.3665 -1124.43 68.3665 -1076.12 68.3665C-963.65 68.2665 -851.177 68.0665 -738.703 68.0666C-692.815 68.0666 -646.828 70.0165 -601.038 67.8664C-572.883 66.5663 -544.974 69.0666 -516.918 67.9665C-486.688 66.7664 -456.408 68.0166 -426.129 68.0666C-395.899 68.0666 -365.62 68.1666 -335.39 67.7166C-329.759 67.6166 -324.226 64.8664 -317.558 63.0162C-309.161 77.2673 -291.922 64.8163 -278.14 67.6665C-275.127 68.3166 -270.632 61.7161 -268.558 59.916C-264.409 62.0162 -258.629 67.6165 -252.801 67.6165C-129.361 67.9665 -5.92217 67.7165 117.517 67.6165C137.967 67.6166 158.416 67.6166 179.409 67.6166C180.249 61.0161 180.941 55.7157 182.077 47.015C185.386 55.5157 187.609 61.216 190.474 68.5166C217.444 68.5166 244.611 67.8668 271.779 68.7669C289.018 69.3169 300.725 65.9166 298.996 44.615C299.835 50.4654 298.798 58.0159 302.058 61.6661C305.664 65.7164 313.073 67.0166 319.05 67.9666C325.521 68.9667 332.288 68.2166 340.636 68.2166C342.365 61.2661 344.044 54.4158 346.761 43.4149C347.206 63.1664 346.959 72.8672 369.977 63.4164C386.771 56.5159 409.938 67.3167 430.289 67.4167C597.196 68.0668 764.152 68.0667 931.059 68.2167C934.023 68.2167 936.987 67.9169 940 67.7669C940 67.3168 940 66.9167 940 66.4667L939.951 66.4667Z" fill="#68FD2D"/>
</g>
<rect width="1440" height="1204" transform="translate(0 27)" fill="#68FD2D"/>
<circle cx="1314.5" cy="237.5" r="44" fill="#B90086" stroke="#FF84DD" stroke-width="7"/>
<circle cx="1360.5" cy="170.5" r="21" fill="#B90086" stroke="#FF84DD" stroke-width="7"/>
<circle cx="1412" cy="285" r="37.5" fill="#B90086" stroke="#FF84DD" stroke-width="7"/>
<circle cx="1259.5" cy="136.5" r="30" fill="#B90086" stroke="#FF84DD" stroke-width="7"/>
<circle cx="1408.5" cy="123.5" r="23" fill="#B90086" stroke="#FF84DD" stroke-width="7"/>
<path d="M1390.5 207C1390.5 212.247 1394.75 216.5 1400 216.5C1405.25 216.5 1409.5 212.247 1409.5 207C1409.5 201.753 1405.25 197.5 1400 197.5C1394.75 197.5 1390.5 201.753 1390.5 207Z" fill="#B90086" stroke="#FF84DD" stroke-width="7"/>
<path d="M1250.5 197C1250.5 202.247 1254.75 206.5 1260 206.5C1265.25 206.5 1269.5 202.247 1269.5 197C1269.5 191.753 1265.25 187.5 1260 187.5C1254.75 187.5 1250.5 191.753 1250.5 197Z" fill="#B90086" stroke="#FF84DD" stroke-width="7"/>
<path d="M50.5 191.5C50.5 210.278 65.7223 225.5 84.5 225.5C103.278 225.5 118.5 210.278 118.5 191.5C118.5 172.722 103.278 157.5 84.5 157.5C65.7223 157.5 50.5 172.722 50.5 191.5Z" fill="#B90086" stroke="#FF84DD" stroke-width="7"/>
<path d="M128.5 240.5C128.5 256.58 141.772 269.5 158 269.5C174.228 269.5 187.5 256.58 187.5 240.5C187.5 224.42 174.228 211.5 158 211.5C141.772 211.5 128.5 224.42 128.5 240.5Z" fill="#B90086" stroke="#FF84DD" stroke-width="7"/>
<circle cx="54" cy="285" r="43.5" transform="rotate(90 54 285)" fill="#B90086" stroke="#FF84DD" stroke-width="7"/>
<circle cx="181.5" cy="136.5" r="30" transform="rotate(90 181.5 136.5)" fill="#B90086" stroke="#FF84DD" stroke-width="7"/>
<circle cx="101.5" cy="96.5" r="24" transform="rotate(90 101.5 96.5)" fill="#B90086" stroke="#FF84DD" stroke-width="7"/>
<path d="M174.5 251C174.5 261.217 182.783 269.5 193 269.5C203.217 269.5 211.5 261.217 211.5 251C211.5 240.783 203.217 232.5 193 232.5C182.783 232.5 174.5 240.783 174.5 251Z" fill="#B90086" stroke="#FF84DD" stroke-width="7"/>
<path d="M142.5 183C142.5 188.247 146.753 192.5 152 192.5C157.247 192.5 161.5 188.247 161.5 183C161.5 177.753 157.247 173.5 152 173.5C146.753 173.5 142.5 177.753 142.5 183Z" fill="#B90086" stroke="#FF84DD" stroke-width="7"/>
<path d="M14.5 146C14.5 151.247 18.7533 155.5 24 155.5C29.2467 155.5 33.5 151.247 33.5 146C33.5 140.753 29.2467 136.5 24 136.5C18.7533 136.5 14.5 140.753 14.5 146Z" fill="#B90086" stroke="#FF84DD" stroke-width="7"/>
</g>
<defs>
<clipPath id="clip0_2019_50">
<rect width="1440" height="1253" fill="white"/>
</clipPath>
<clipPath id="clip1_2019_50">
<rect width="1440" height="70" fill="white" transform="matrix(-1 0 0 1 1440 1183)"/>
</clipPath>
<clipPath id="clip2_2019_50">
<rect width="1440" height="70" fill="white" transform="matrix(1 1.74846e-07 1.74846e-07 -1 0 70)"/>
</clipPath>
</defs>
</svg>
