<svg width="1440" height="1135" viewBox="0 0 1440 1135" fill="none" xmlns="http://www.w3.org/2000/svg">
<rect width="1440" height="1067" transform="translate(0 31)" fill="#560E42"/>
<circle cx="-5.5" cy="115.5" r="36.5" fill="#B90086"/>
<circle cx="79.5" cy="115.5" r="36.5" fill="#B90086"/>
<circle cx="164.5" cy="115.5" r="36.5" fill="#B90086"/>
<circle cx="249.5" cy="115.5" r="36.5" fill="#B90086"/>
<circle cx="334.5" cy="115.5" r="36.5" fill="#B90086"/>
<circle cx="419.5" cy="115.5" r="36.5" fill="#B90086"/>
<circle cx="504.5" cy="115.5" r="36.5" fill="#B90086"/>
<circle opacity="0.2" cx="589.5" cy="115.5" r="36.5" fill="#B90086"/>
<circle cx="674.5" cy="115.5" r="36.5" fill="#B90086"/>
<circle cx="759.5" cy="115.5" r="36.5" fill="#B90086"/>
<circle cx="844.5" cy="115.5" r="36.5" fill="#B90086"/>
<circle cx="929.5" cy="115.5" r="36.5" fill="#B90086"/>
<circle cx="1014.5" cy="115.5" r="36.5" fill="#B90086"/>
<circle cx="1099.5" cy="115.5" r="36.5" fill="#B90086"/>
<circle cx="1184.5" cy="115.5" r="36.5" fill="#B90086"/>
<circle cx="1269.5" cy="115.5" r="36.5" fill="#B90086"/>
<circle cx="1354.5" cy="115.5" r="36.5" fill="#B90086"/>
<circle cx="1439.5" cy="115.5" r="36.5" fill="#B90086"/>
<circle cx="-5.5" cy="200.5" r="36.5" fill="#B90086"/>
<circle cx="79.5" cy="200.5" r="36.5" fill="#B90086"/>
<circle cx="164.5" cy="200.5" r="36.5" fill="#B90086"/>
<circle cx="249.5" cy="200.5" r="36.5" fill="#B90086"/>
<circle cx="334.5" cy="200.5" r="36.5" fill="#B90086"/>
<circle cx="419.5" cy="200.5" r="36.5" fill="#B90086"/>
<circle cx="504.5" cy="200.5" r="36.5" fill="#B90086"/>
<circle cx="589.5" cy="200.5" r="36.5" fill="#B90086"/>
<circle cx="674.5" cy="200.5" r="36.5" fill="#B90086"/>
<circle cx="759.5" cy="200.5" r="36.5" fill="#B90086"/>
<circle cx="844.5" cy="200.5" r="36.5" fill="#B90086"/>
<circle cx="929.5" cy="200.5" r="36.5" fill="#B90086"/>
<circle cx="1014.5" cy="200.5" r="36.5" fill="#B90086"/>
<circle opacity="0.2" cx="1099.5" cy="200.5" r="36.5" fill="#B90086"/>
<circle cx="1184.5" cy="200.5" r="36.5" fill="#B90086"/>
<circle cx="1269.5" cy="200.5" r="36.5" fill="#B90086"/>
<circle cx="1354.5" cy="200.5" r="36.5" fill="#B90086"/>
<circle cx="1439.5" cy="200.5" r="36.5" fill="#B90086"/>
<circle cx="-5.5" cy="285.5" r="36.5" fill="#B90086"/>
<circle cx="79.5" cy="285.5" r="36.5" fill="#B90086"/>
<circle opacity="0.2" cx="164.5" cy="285.5" r="36.5" fill="#B90086"/>
<circle cx="249.5" cy="285.5" r="36.5" fill="#B90086"/>
<circle cx="334.5" cy="285.5" r="36.5" fill="#B90086"/>
<circle cx="419.5" cy="285.5" r="36.5" fill="#B90086"/>
<circle cx="504.5" cy="285.5" r="36.5" fill="#B90086"/>
<circle cx="589.5" cy="285.5" r="36.5" fill="#B90086"/>
<circle cx="674.5" cy="285.5" r="36.5" fill="#B90086"/>
<circle cx="759.5" cy="285.5" r="36.5" fill="#B90086"/>
<circle cx="844.5" cy="285.5" r="36.5" fill="#B90086"/>
<circle cx="929.5" cy="285.5" r="36.5" fill="#B90086"/>
<circle cx="1014.5" cy="285.5" r="36.5" fill="#B90086"/>
<circle cx="1099.5" cy="285.5" r="36.5" fill="#B90086"/>
<circle cx="1184.5" cy="285.5" r="36.5" fill="#B90086"/>
<circle cx="1269.5" cy="285.5" r="36.5" fill="#B90086"/>
<circle cx="1354.5" cy="285.5" r="36.5" fill="#B90086"/>
<circle cx="1439.5" cy="285.5" r="36.5" fill="#B90086"/>
<circle cx="-5.5" cy="370.5" r="36.5" fill="#B90086"/>
<circle cx="79.5" cy="370.5" r="36.5" fill="#B90086"/>
<circle cx="164.5" cy="370.5" r="36.5" fill="#B90086"/>
<circle cx="249.5" cy="370.5" r="36.5" fill="#B90086"/>
<circle cx="334.5" cy="370.5" r="36.5" fill="#B90086"/>
<circle cx="419.5" cy="370.5" r="36.5" fill="#B90086"/>
<circle cx="504.5" cy="370.5" r="36.5" fill="#B90086"/>
<circle cx="589.5" cy="370.5" r="36.5" fill="#B90086"/>
<circle cx="674.5" cy="370.5" r="36.5" fill="#B90086"/>
<circle cx="759.5" cy="370.5" r="36.5" fill="#B90086"/>
<circle cx="844.5" cy="370.5" r="36.5" fill="#B90086"/>
<circle cx="929.5" cy="370.5" r="36.5" fill="#B90086"/>
<circle cx="1014.5" cy="370.5" r="36.5" fill="#B90086"/>
<circle cx="1099.5" cy="370.5" r="36.5" fill="#B90086"/>
<circle opacity="0.2" cx="1184.5" cy="370.5" r="36.5" fill="#B90086"/>
<circle cx="1269.5" cy="370.5" r="36.5" fill="#B90086"/>
<circle cx="1354.5" cy="370.5" r="36.5" fill="#B90086"/>
<circle cx="1439.5" cy="370.5" r="36.5" fill="#B90086"/>
<circle cx="-5.5" cy="455.5" r="36.5" fill="#B90086"/>
<circle cx="79.5" cy="455.5" r="36.5" fill="#B90086"/>
<circle cx="164.5" cy="455.5" r="36.5" fill="#B90086"/>
<circle opacity="0.2" cx="249.5" cy="455.5" r="36.5" fill="#B90086"/>
<circle cx="334.5" cy="455.5" r="36.5" fill="#B90086"/>
<circle cx="419.5" cy="455.5" r="36.5" fill="#B90086"/>
<circle cx="504.5" cy="455.5" r="36.5" fill="#B90086"/>
<circle cx="589.5" cy="455.5" r="36.5" fill="#B90086"/>
<circle cx="674.5" cy="455.5" r="36.5" fill="#B90086"/>
<circle cx="759.5" cy="455.5" r="36.5" fill="#B90086"/>
<circle cx="844.5" cy="455.5" r="36.5" fill="#B90086"/>
<circle cx="929.5" cy="455.5" r="36.5" fill="#B90086"/>
<circle cx="1014.5" cy="455.5" r="36.5" fill="#B90086"/>
<circle cx="1099.5" cy="455.5" r="36.5" fill="#B90086"/>
<circle cx="1184.5" cy="455.5" r="36.5" fill="#B90086"/>
<circle opacity="0.2" cx="1269.5" cy="455.5" r="36.5" fill="#B90086"/>
<circle cx="1354.5" cy="455.5" r="36.5" fill="#B90086"/>
<circle cx="1439.5" cy="455.5" r="36.5" fill="#B90086"/>
<circle cx="-5.5" cy="540.5" r="36.5" fill="#B90086"/>
<circle cx="79.5" cy="540.5" r="36.5" fill="#B90086"/>
<circle cx="164.5" cy="540.5" r="36.5" fill="#B90086"/>
<circle cx="249.5" cy="540.5" r="36.5" fill="#B90086"/>
<circle cx="334.5" cy="540.5" r="36.5" fill="#B90086"/>
<circle cx="419.5" cy="540.5" r="36.5" fill="#B90086"/>
<circle cx="504.5" cy="540.5" r="36.5" fill="#B90086"/>
<circle cx="589.5" cy="540.5" r="36.5" fill="#B90086"/>
<circle cx="674.5" cy="540.5" r="36.5" fill="#B90086"/>
<circle cx="759.5" cy="540.5" r="36.5" fill="#B90086"/>
<circle cx="844.5" cy="540.5" r="36.5" fill="#B90086"/>
<circle cx="929.5" cy="540.5" r="36.5" fill="#B90086"/>
<circle cx="1014.5" cy="540.5" r="36.5" fill="#B90086"/>
<circle cx="1099.5" cy="540.5" r="36.5" fill="#B90086"/>
<circle cx="1184.5" cy="540.5" r="36.5" fill="#B90086"/>
<circle cx="1269.5" cy="540.5" r="36.5" fill="#B90086"/>
<circle cx="1354.5" cy="540.5" r="36.5" fill="#B90086"/>
<circle opacity="0.2" cx="1439.5" cy="540.5" r="36.5" fill="#B90086"/>
<circle cx="-5.5" cy="625.5" r="36.5" fill="#B90086"/>
<circle cx="79.5" cy="625.5" r="36.5" fill="#B90086"/>
<circle opacity="0.2" cx="164.5" cy="625.5" r="36.5" fill="#B90086"/>
<circle cx="249.5" cy="625.5" r="36.5" fill="#B90086"/>
<circle cx="334.5" cy="625.5" r="36.5" fill="#B90086"/>
<circle cx="419.5" cy="625.5" r="36.5" fill="#B90086"/>
<circle cx="504.5" cy="625.5" r="36.5" fill="#B90086"/>
<circle cx="589.5" cy="625.5" r="36.5" fill="#B90086"/>
<circle cx="674.5" cy="625.5" r="36.5" fill="#B90086"/>
<circle cx="759.5" cy="625.5" r="36.5" fill="#B90086"/>
<circle cx="844.5" cy="625.5" r="36.5" fill="#B90086"/>
<circle cx="929.5" cy="625.5" r="36.5" fill="#B90086"/>
<circle cx="1014.5" cy="625.5" r="36.5" fill="#B90086"/>
<circle cx="1099.5" cy="625.5" r="36.5" fill="#B90086"/>
<circle opacity="0.2" cx="1184.5" cy="625.5" r="36.5" fill="#B90086"/>
<circle cx="1269.5" cy="625.5" r="36.5" fill="#B90086"/>
<circle cx="1354.5" cy="625.5" r="36.5" fill="#B90086"/>
<circle cx="1439.5" cy="625.5" r="36.5" fill="#B90086"/>
<circle cx="-5.5" cy="710.5" r="36.5" fill="#B90086"/>
<circle cx="79.5" cy="710.5" r="36.5" fill="#B90086"/>
<circle cx="164.5" cy="710.5" r="36.5" fill="#B90086"/>
<circle cx="249.5" cy="710.5" r="36.5" fill="#B90086"/>
<circle cx="334.5" cy="710.5" r="36.5" fill="#B90086"/>
<circle cx="419.5" cy="710.5" r="36.5" fill="#B90086"/>
<circle cx="504.5" cy="710.5" r="36.5" fill="#B90086"/>
<circle cx="589.5" cy="710.5" r="36.5" fill="#B90086"/>
<circle cx="674.5" cy="710.5" r="36.5" fill="#B90086"/>
<circle cx="759.5" cy="710.5" r="36.5" fill="#B90086"/>
<circle cx="844.5" cy="710.5" r="36.5" fill="#B90086"/>
<circle cx="929.5" cy="710.5" r="36.5" fill="#B90086"/>
<circle cx="1014.5" cy="710.5" r="36.5" fill="#B90086"/>
<circle cx="1099.5" cy="710.5" r="36.5" fill="#B90086"/>
<circle cx="1184.5" cy="710.5" r="36.5" fill="#B90086"/>
<circle cx="1269.5" cy="710.5" r="36.5" fill="#B90086"/>
<circle cx="1354.5" cy="710.5" r="36.5" fill="#B90086"/>
<circle cx="1439.5" cy="710.5" r="36.5" fill="#B90086"/>
<circle cx="-5.5" cy="795.5" r="36.5" fill="#B90086"/>
<circle cx="79.5" cy="795.5" r="36.5" fill="#B90086"/>
<circle cx="164.5" cy="795.5" r="36.5" fill="#B90086"/>
<circle cx="249.5" cy="795.5" r="36.5" fill="#B90086"/>
<circle cx="334.5" cy="795.5" r="36.5" fill="#B90086"/>
<circle cx="419.5" cy="795.5" r="36.5" fill="#B90086"/>
<circle cx="504.5" cy="795.5" r="36.5" fill="#B90086"/>
<circle cx="589.5" cy="795.5" r="36.5" fill="#B90086"/>
<circle cx="674.5" cy="795.5" r="36.5" fill="#B90086"/>
<circle cx="759.5" cy="795.5" r="36.5" fill="#B90086"/>
<circle cx="844.5" cy="795.5" r="36.5" fill="#B90086"/>
<circle cx="929.5" cy="795.5" r="36.5" fill="#B90086"/>
<circle cx="1014.5" cy="795.5" r="36.5" fill="#B90086"/>
<circle cx="1099.5" cy="795.5" r="36.5" fill="#B90086"/>
<circle cx="1184.5" cy="795.5" r="36.5" fill="#B90086"/>
<circle cx="1269.5" cy="795.5" r="36.5" fill="#B90086"/>
<circle opacity="0.2" cx="1354.5" cy="795.5" r="36.5" fill="#B90086"/>
<circle cx="1439.5" cy="795.5" r="36.5" fill="#B90086"/>
<circle cx="-5.5" cy="880.5" r="36.5" fill="#B90086"/>
<circle opacity="0.2" cx="79.5" cy="880.5" r="36.5" fill="#B90086"/>
<circle cx="164.5" cy="880.5" r="36.5" fill="#B90086"/>
<circle opacity="0.2" cx="249.5" cy="880.5" r="36.5" fill="#B90086"/>
<circle cx="334.5" cy="880.5" r="36.5" fill="#B90086"/>
<circle cx="419.5" cy="880.5" r="36.5" fill="#B90086"/>
<circle cx="504.5" cy="880.5" r="36.5" fill="#B90086"/>
<circle cx="589.5" cy="880.5" r="36.5" fill="#B90086"/>
<circle cx="674.5" cy="880.5" r="36.5" fill="#B90086"/>
<circle cx="759.5" cy="880.5" r="36.5" fill="#B90086"/>
<circle cx="844.5" cy="880.5" r="36.5" fill="#B90086"/>
<circle cx="929.5" cy="880.5" r="36.5" fill="#B90086"/>
<circle cx="1014.5" cy="880.5" r="36.5" fill="#B90086"/>
<circle cx="1099.5" cy="880.5" r="36.5" fill="#B90086"/>
<circle cx="1184.5" cy="880.5" r="36.5" fill="#B90086"/>
<circle cx="1269.5" cy="880.5" r="36.5" fill="#B90086"/>
<circle cx="1354.5" cy="880.5" r="36.5" fill="#B90086"/>
<circle cx="1439.5" cy="880.5" r="36.5" fill="#B90086"/>
<circle cx="-5.5" cy="965.5" r="36.5" fill="#B90086"/>
<circle cx="79.5" cy="965.5" r="36.5" fill="#B90086"/>
<circle cx="164.5" cy="965.5" r="36.5" fill="#B90086"/>
<circle cx="249.5" cy="965.5" r="36.5" fill="#B90086"/>
<circle cx="334.5" cy="965.5" r="36.5" fill="#B90086"/>
<circle cx="419.5" cy="965.5" r="36.5" fill="#B90086"/>
<circle cx="504.5" cy="965.5" r="36.5" fill="#B90086"/>
<circle cx="589.5" cy="965.5" r="36.5" fill="#B90086"/>
<circle cx="674.5" cy="965.5" r="36.5" fill="#B90086"/>
<circle cx="759.5" cy="965.5" r="36.5" fill="#B90086"/>
<circle cx="844.5" cy="965.5" r="36.5" fill="#B90086"/>
<circle cx="929.5" cy="965.5" r="36.5" fill="#B90086"/>
<circle cx="1014.5" cy="965.5" r="36.5" fill="#B90086"/>
<circle cx="1099.5" cy="965.5" r="36.5" fill="#B90086"/>
<circle cx="1184.5" cy="965.5" r="36.5" fill="#B90086"/>
<circle cx="1269.5" cy="965.5" r="36.5" fill="#B90086"/>
<circle cx="1354.5" cy="965.5" r="36.5" fill="#B90086"/>
<circle cx="1439.5" cy="965.5" r="36.5" fill="#B90086"/>
<circle cx="-5.5" cy="1050.5" r="36.5" fill="#B90086"/>
<circle cx="79.5" cy="1050.5" r="36.5" fill="#B90086"/>
<circle cx="164.5" cy="1050.5" r="36.5" fill="#B90086"/>
<circle cx="249.5" cy="1050.5" r="36.5" fill="#B90086"/>
<circle cx="334.5" cy="1050.5" r="36.5" fill="#B90086"/>
<circle cx="419.5" cy="1050.5" r="36.5" fill="#B90086"/>
<circle cx="504.5" cy="1050.5" r="36.5" fill="#B90086"/>
<circle cx="589.5" cy="1050.5" r="36.5" fill="#B90086"/>
<circle cx="674.5" cy="1050.5" r="36.5" fill="#B90086"/>
<circle opacity="0.2" cx="759.5" cy="1050.5" r="36.5" fill="#B90086"/>
<circle cx="844.5" cy="1050.5" r="36.5" fill="#B90086"/>
<circle cx="929.5" cy="1050.5" r="36.5" fill="#B90086"/>
<circle cx="1014.5" cy="1050.5" r="36.5" fill="#B90086"/>
<circle cx="1099.5" cy="1050.5" r="36.5" fill="#B90086"/>
<circle cx="1184.5" cy="1050.5" r="36.5" fill="#B90086"/>
<circle cx="1269.5" cy="1050.5" r="36.5" fill="#B90086"/>
<circle cx="1354.5" cy="1050.5" r="36.5" fill="#B90086"/>
<circle cx="1439.5" cy="1050.5" r="36.5" fill="#B90086"/>
<g clip-path="url(#clip0_3_427)">
<path d="M-4.98163 33.6875C22.5872 32.146 50.156 30.6602 77.7064 29.0443C124.401 26.3141 171.095 23.5096 217.789 20.7422C264.704 17.9563 311.637 15.1518 358.552 12.403C380.522 11.1215 402.511 9.15287 424.5 9.00429C442.451 8.89285 460.402 10.9544 478.353 12.1802C533.325 15.9505 588.279 19.9065 643.251 23.5653C682.072 26.1469 720.91 28.32 759.73 30.7716C772.487 31.5702 785.243 32.6475 798 34.3933C780.049 34.3933 762.117 34.3933 744.166 34.3933C702.372 34.3562 660.578 34.2819 618.785 34.2819C601.733 34.2819 584.645 35.0061 567.63 34.2075C557.168 33.7246 546.798 34.6533 536.372 34.2447C525.139 33.7989 513.888 34.2633 502.636 34.2819C491.403 34.2819 480.152 34.319 468.918 34.1518C466.826 34.1147 464.77 33.0932 462.292 32.406C459.172 37.6992 452.766 33.0746 447.645 34.1333C446.526 34.3747 444.856 31.9231 444.085 31.2545C442.543 32.0345 440.395 34.1147 438.229 34.1147C392.361 34.2447 346.493 34.1518 300.624 34.1147C293.025 34.1147 285.427 34.1147 277.626 34.1147C277.314 31.6631 276.422 34.2317 276 31C274.77 34.1574 274.579 31.7373 273.514 34.449C263.493 34.449 253.398 34.2076 243.302 34.5419C236.897 34.7462 231.409 39.8165 232.051 31.9045C233.262 30.5487 231.739 34.0775 232.051 31.9045C230.711 33.4089 227.958 33.8918 225.737 34.2447C223.333 34.6161 220.818 34.3375 217.716 34.3375C217.074 31.7559 216.01 35.9906 215 31.9045C214.835 39.2408 215.367 36.0649 206.813 32.5546C200.573 29.9916 191.964 34.0033 184.402 34.0404C122.382 34.2819 60.3429 34.2818 -1.67767 34.3375C-2.77893 34.3375 -3.88037 34.2262 -5 34.1704C-5 34.0033 -5 33.8547 -5 33.6875H-4.98163Z" fill="#560E42"/>
<path d="M657.018 45.6876C684.587 44.146 712.156 42.6602 739.706 41.0444C786.401 38.3142 833.095 35.5096 879.789 32.7423C926.704 29.9563 973.637 27.1519 1020.55 24.4031C1042.52 23.1216 1064.51 21.1529 1086.5 21.0043C1104.45 20.8929 1122.4 22.9544 1140.35 24.1802C1195.33 27.9505 1250.28 31.9065 1305.25 35.5654C1344.07 38.147 1382.91 40.32 1421.73 42.7716C1434.49 43.5703 1447.24 44.6475 1460 46.3933C1442.05 46.3933 1424.12 46.3933 1406.17 46.3933C1364.37 46.3562 1322.58 46.2819 1280.78 46.2819C1263.73 46.2819 1246.64 47.0062 1229.63 46.2076C1219.17 45.7247 1208.8 46.6533 1198.37 46.2447C1187.14 45.799 1175.89 46.2633 1164.64 46.2819C1153.4 46.2819 1142.15 46.319 1130.92 46.1519C1128.83 46.1147 1126.77 45.0932 1124.29 44.406C1121.17 49.6993 1114.77 45.0747 1109.65 46.1333C1108.53 46.3747 1106.86 43.9232 1106.08 43.2545C1104.54 44.0346 1102.4 46.1147 1100.23 46.1147C1054.36 46.2447 1008.49 46.1519 962.624 46.1147C955.025 46.1147 947.427 46.1147 939.626 46.1147C939.314 43.6631 939.057 41.6944 938.635 38.4627C937.405 41.6201 936.579 43.7374 935.514 46.449C925.493 46.449 915.398 46.2077 905.302 46.542C898.897 46.7463 894.547 45.4833 895.189 37.5713C894.877 39.7443 895.262 42.5487 894.051 43.9045C892.711 45.4089 889.958 45.8919 887.737 46.2447C885.333 46.6162 882.818 46.3376 879.716 46.3376C879.074 43.756 878.45 41.2115 877.44 37.1255C877.275 44.4618 877.367 48.0649 868.813 44.5547C862.573 41.9916 853.964 46.0033 846.402 46.0405C784.382 46.2819 722.343 46.2819 660.322 46.3376C659.221 46.3376 658.12 46.2262 657 46.1705C657 46.0033 657 45.8547 657 45.6876H657.018Z" fill="#560E42"/>
<path d="M500.049 66.4665C574.241 62.3162 648.433 58.3159 722.576 53.9656C848.238 46.6151 973.9 39.0643 1099.56 31.6138C1225.82 24.1132 1352.12 16.5627 1478.38 9.16214C1537.5 5.71189 1596.68 0.411713 1655.85 0.0116806C1704.16 -0.288338 1752.47 5.26188 1800.78 8.56213C1948.72 18.7129 2096.61 29.3637 2244.55 39.2144C2349.02 46.165 2453.54 52.0154 2558.01 58.6159C2592.34 60.7661 2626.67 63.6664 2661 68.3667C2612.69 68.3667 2564.43 68.3667 2516.12 68.3667C2403.65 68.2667 2291.18 68.0667 2178.7 68.0667C2132.81 68.0667 2086.83 70.0166 2041.04 67.8665C2012.88 66.5664 1984.97 69.0667 1956.92 67.9666C1926.69 66.7665 1896.41 68.0167 1866.13 68.0667C1835.9 68.0667 1805.62 68.1667 1775.39 67.7166C1769.76 67.6166 1764.23 64.8664 1757.56 63.0163C1749.16 77.2673 1731.92 64.8164 1718.14 67.6666C1715.13 68.3166 1710.63 61.7162 1708.56 59.9161C1704.41 62.0162 1698.63 67.6165 1692.8 67.6165C1569.36 67.9666 1445.92 67.7165 1322.48 67.6165C1302.03 67.6165 1281.58 67.6165 1260.59 67.6165C1259.75 61.016 1259.06 55.7157 1257.92 47.015C1254.61 55.5156 1252.39 61.216 1249.53 68.5166C1222.56 68.5166 1195.39 67.8668 1168.22 68.7668C1150.98 69.3169 1139.28 65.9165 1141 44.6149C1140.16 50.4654 1141.2 58.0158 1137.94 61.6661C1134.34 65.7164 1126.93 67.0165 1120.95 67.9666C1114.48 68.9667 1107.71 68.2165 1099.36 68.2165C1097.64 61.266 1095.96 54.4157 1093.24 43.4149C1092.79 63.1664 1093.04 72.8671 1070.02 63.4164C1053.23 56.5159 1030.06 67.3166 1009.71 67.4166C842.804 68.0667 675.848 68.0665 508.941 68.2165C505.977 68.2165 503.013 67.9167 500 67.7667C500 67.3167 500 66.9166 500 66.4665H500.049Z" fill="#560E42"/>
</g>
<defs>
<clipPath id="clip0_3_427">
<rect width="1440" height="70" fill="white" transform="matrix(-1 0 0 -1 1440 70)"/>
</clipPath>
</defs>
</svg>
