<svg width="36" height="36" viewBox="0 0 36 36" fill="none" xmlns="http://www.w3.org/2000/svg">
<path fill-rule="evenodd" clip-rule="evenodd" d="M29.8335 6.46651C30.2094 6.30831 30.6208 6.25375 31.025 6.3085C31.4291 6.36326 31.8111 6.52533 32.1314 6.77785C32.4516 7.03037 32.6983 7.36411 32.8458 7.74433C32.9933 8.12455 33.0362 8.53735 32.97 8.93976L29.5202 29.865C29.1856 31.8835 26.9709 33.041 25.1198 32.0356C23.5713 31.1944 21.2715 29.8985 19.2028 28.5463C18.1685 27.8694 15.0001 25.7019 15.3895 24.1595C15.7242 22.8408 21.0479 17.8851 24.09 14.9388C25.284 13.7813 24.7395 13.1136 23.3295 14.1783C19.828 16.8219 14.2061 20.8421 12.3474 21.9738C10.7077 22.9716 9.85285 23.1419 8.83069 22.9716C6.96587 22.6613 5.23642 22.1806 3.82488 21.595C1.91746 20.8041 2.01025 18.1817 3.82336 17.4182L29.8335 6.46651Z" fill="white"/>
</svg>
